<?xml version="1.0" encoding="utf-8"?><svg xmlns="http://www.w3.org/2000/svg" xmlns:xlink="http://www.w3.org/1999/xlink"><symbol viewBox="0 0 512.005 512.005" id="001-water" xmlns="http://www.w3.org/2000/svg"><path d="M263.148 2.766c-4.042-3.688-10.25-3.688-14.292 0-7.563 6.823-184.854 168.875-184.854 317.24 0 105.865 86.125 192 192 192s192-86.135 192-192c.001-148.365-177.291-310.417-184.854-317.24zm-7.145 487.906c-94.104 0-170.667-76.563-170.667-170.667 0-122.708 137.438-262.646 170.667-294.667 33.229 32.01 170.667 171.865 170.667 294.667-.001 94.104-76.563 170.667-170.667 170.667z"/><path d="M256.003 426.672c-58.812 0-106.667-47.854-106.667-106.667a10.66 10.66 0 00-10.667-10.667 10.66 10.66 0 00-10.667 10.667c0 70.583 57.417 128 128 128a10.66 10.66 0 0010.667-10.667 10.66 10.66 0 00-10.666-10.666z"/></symbol><symbol viewBox="0 0 512.001 512.001" id="002-leaf" xmlns="http://www.w3.org/2000/svg"><path d="M507.601 486.357l-67.049-67.049c14.984-110.188 1.285-253.633-79.701-334.618C304.945 28.784 223.07 6.681 144.82 1.353 75.446-3.369 20.732 5.762 18.438 6.152 12.321 7.181 7.24 12.063 6.152 18.437c-.392 2.296-9.523 57.012-4.799 126.382 5.33 78.271 27.439 160.133 83.338 216.032 80.477 80.477 223.66 94.791 334.617 79.699l67.05 67.05c5.865 5.866 15.377 5.866 21.243 0 5.866-5.866 5.866-15.377 0-21.243zM105.934 339.61c-54.138-54.138-70.429-136.557-74.561-196.167-2.485-35.816-.998-67.953.892-89.935l95.98 95.98H78.772c-8.296 0-15.021 6.726-15.021 15.021s6.726 15.021 15.021 15.021h79.514l60.085 60.085h-115.99c-8.296 0-15.021 6.726-15.021 15.021s6.725 15.021 15.021 15.021h146.033l60.085 60.085H194.582c-8.296 0-15.021 6.726-15.021 15.021s6.726 15.021 15.021 15.021h143.96l53.467 53.467c-62.039 5.265-205.2 7.235-286.075-73.641zm307.344 52.426l-53.494-53.494v-143.96c0-8.296-6.726-15.021-15.021-15.021-8.296 0-15.021 6.725-15.021 15.021v113.917l-60.085-60.085V102.381c0-8.296-6.726-15.021-15.021-15.021-8.296 0-15.021 6.725-15.021 15.021v115.991l-60.085-60.085V78.768c0-8.296-6.725-15.021-15.021-15.021-8.296 0-15.021 6.726-15.021 15.021v49.477L53.533 32.291c21.537-1.828 52.852-3.258 87.942-.963 65.989 4.316 145.335 21.806 198.133 74.606 68.839 68.837 82.011 189.083 73.67 286.102z"/></symbol><symbol viewBox="0 0 612 612" id="003-book" xmlns="http://www.w3.org/2000/svg"><path d="M535.5 0S424.785 30.485 324.169 57.375c-12.604.497-25.322 0-37.944 0C190.389 31.671 76.5 0 76.5 0 34.253 0 0 34.253 0 76.5v401.625c0 42.247 36.051 63.342 76.5 76.5 0 0 103.141 28.688 209.744 57.375h38.728C432.454 583.312 535.5 554.625 535.5 554.625c39.264-10.155 76.5-34.253 76.5-76.5V76.5C612 34.253 577.747 0 535.5 0zM286.875 573.712C182.414 545.637 76.5 516.375 76.5 516.375c-21.726-5.967-38.25-17.117-38.25-38.25V76.5c0-21.114 17.117-38.25 38.25-38.25l210.375 57.375v478.087zm286.875-95.587c0 21.133-17.729 31.671-38.25 38.25 0 0-104.098 28.975-210.375 56.916V95.625L535.5 38.25c21.133 0 38.25 17.117 38.25 38.25v401.625z"/></symbol><symbol viewBox="0 0 612 612" id="004-checkmark-verify-interface-symbol-button" xmlns="http://www.w3.org/2000/svg"><path d="M421.267 173.425c-9.142-5.278-20.847-2.142-26.125 7L272.837 392.272l-68.429-63.112c-7.229-7.707-19.316-8.108-27.024-.88-7.707 7.229-8.109 19.316-.879 27.043l87.439 80.65c7.229 7.707 19.316 8.108 27.023.88 2.333-2.181 137.317-237.284 137.317-237.284 5.261-9.16 2.124-20.865-7.017-26.144zM306 0C136.992 0 0 136.992 0 306s136.992 306 306 306 306-136.992 306-306S475.008 0 306 0zm0 573.75C158.125 573.75 38.25 453.875 38.25 306S158.125 38.25 306 38.25 573.75 158.125 573.75 306 453.875 573.75 306 573.75z"/></symbol><symbol viewBox="0 0 612 612" id="005-info" xmlns="http://www.w3.org/2000/svg"><path d="M343.312 312.732c24.48-33.029 39.188-75.353 39.188-121.482C382.5 85.623 305.445 0 210.375 0S38.25 85.623 38.25 191.25c0 46.129 14.707 88.453 39.187 121.482C32.493 328.28 0 370.509 0 420.75v76.5C0 560.63 51.37 612 114.75 612H306c63.38 0 114.75-51.37 114.75-114.75v-76.5c0-50.241-32.493-92.47-77.438-108.018zM76.5 191.25c0-84.494 59.938-153 133.875-153s133.875 68.506 133.875 153-59.938 153-133.875 153S76.5 275.744 76.5 191.25zm306 296.438c0 47.525-42.037 86.062-93.885 86.062h-156.48c-51.848 0-93.885-38.537-93.885-86.062v-57.375c0-40.66 30.849-74.53 72.216-83.538 28.19 22.415 62.615 35.726 99.909 35.726s71.719-13.311 99.909-35.726c41.367 9.008 72.216 42.878 72.216 83.538v57.375zM439.875 153h153c10.557 0 19.125-8.568 19.125-19.125s-8.568-19.125-19.125-19.125h-153c-10.557 0-19.125 8.568-19.125 19.125S429.318 153 439.875 153zm153 76.5h-153c-10.557 0-19.125 8.568-19.125 19.125s8.568 19.125 19.125 19.125h153c10.557 0 19.125-8.568 19.125-19.125s-8.568-19.125-19.125-19.125zm0 114.75h-114.75c-10.557 0-19.125 8.568-19.125 19.125s8.568 19.125 19.125 19.125h114.75c10.557 0 19.125-8.568 19.125-19.125s-8.568-19.125-19.125-19.125zm0 114.75h-114.75C467.568 459 459 467.568 459 478.125s8.568 19.125 19.125 19.125h114.75c10.557 0 19.125-8.568 19.125-19.125S603.432 459 592.875 459z"/></symbol><symbol viewBox="0 0 753.352 753.352" id="006-sheet" xmlns="http://www.w3.org/2000/svg"><path d="M517.906 517.967H235.445c-12.993 0-23.538 10.546-23.538 23.539s10.545 23.538 23.538 23.538h282.461c12.993 0 23.539-10.545 23.539-23.538s-10.546-23.539-23.539-23.539zM494.368.121v.683c-3.036 0-15.559-1.177-47.077-.683H164.83c-51.997 0-94.154 42.157-94.154 94.154v564.923c0 51.996 42.157 94.153 94.154 94.153h423.692c51.997 0 94.154-42.157 94.154-94.153v-470.77L494.368.121zm141.231 659.077c0 25.986-21.066 47.077-47.077 47.077H164.83c-26.01 0-47.077-21.091-47.077-47.077V94.275c0-26.01 21.067-47.077 47.077-47.077h281.802c-.424 56.375.659 94.154.659 94.154 0 51.997 42.157 94.154 94.154 94.154h94.153v423.692zm-94.154-470.769c-26.011 0-47.077-21.09-47.077-47.077V47.198l141.23 141.23h-94.153zm-23.539 188.307H235.445c-12.993 0-23.538 10.546-23.538 23.539s10.545 23.538 23.538 23.538h282.461c12.993 0 23.539-10.545 23.539-23.538s-10.546-23.539-23.539-23.539z"/></symbol><symbol viewBox="0 0 49.94 49.94" id="007-star" xmlns="http://www.w3.org/2000/svg"><path d="M48.856 22.73a3.56 3.56 0 00.906-3.671 3.56 3.56 0 00-2.892-2.438l-12.092-1.757a1.58 1.58 0 01-1.19-.865L28.182 3.043a3.56 3.56 0 00-3.212-1.996 3.56 3.56 0 00-3.211 1.996L16.352 14c-.23.467-.676.79-1.191.865L3.069 16.622A3.56 3.56 0 00.177 19.06a3.56 3.56 0 00.906 3.671l8.749 8.528c.373.364.544.888.456 1.4L8.224 44.701a3.506 3.506 0 00.781 2.904c1.066 1.267 2.927 1.653 4.415.871l10.814-5.686a1.619 1.619 0 011.472 0l10.815 5.686a3.544 3.544 0 001.666.417c1.057 0 2.059-.47 2.748-1.288a3.505 3.505 0 00.781-2.904l-2.065-12.042a1.582 1.582 0 01.456-1.4l8.749-8.529z"/></symbol><symbol viewBox="0 0 535.5 535.5" id="008-lock" xmlns="http://www.w3.org/2000/svg"><path d="M420.75 178.5h-25.5v-51c0-71.4-56.1-127.5-127.5-127.5s-127.5 56.1-127.5 127.5v51h-25.5c-28.05 0-51 22.95-51 51v255c0 28.05 22.95 51 51 51h306c28.05 0 51-22.95 51-51v-255c0-28.05-22.95-51-51-51zm-153 229.5c-28.05 0-51-22.95-51-51s22.95-51 51-51 51 22.95 51 51-22.95 51-51 51zm79.05-229.5H188.7v-51c0-43.35 35.7-79.05 79.05-79.05 43.35 0 79.05 35.7 79.05 79.05v51z"/></symbol><symbol viewBox="0 0 51.997 51.997" id="009-like" xmlns="http://www.w3.org/2000/svg"><path d="M51.911 16.242c-.759-8.354-6.672-14.415-14.072-14.415-4.93 0-9.444 2.653-11.984 6.905-2.517-4.307-6.846-6.906-11.697-6.906C6.759 1.826.845 7.887.087 16.241c-.06.369-.306 2.311.442 5.478 1.078 4.568 3.568 8.723 7.199 12.013l18.115 16.439 18.426-16.438c3.631-3.291 6.121-7.445 7.199-12.014.748-3.166.502-5.108.443-5.477z"/></symbol><symbol viewBox="0 0 512.002 512.002" id="010-slack" xmlns="http://www.w3.org/2000/svg"><path d="M509.762 274.567c-7.776-23.968-33.504-37.056-57.472-29.28l-45.952 14.944c-10.176-31.36-21.024-64.704-31.2-96 27.936-9.088 45.952-14.944 45.952-14.944 23.968-7.776 37.056-33.504 29.28-57.472-7.776-23.968-33.504-37.056-57.472-29.28l-45.952 14.944c-9.088-27.936-14.944-45.952-14.944-45.952-7.744-23.936-33.472-37.056-57.44-29.28s-37.056 33.504-29.28 57.472l14.944 45.952-96 31.2a67616.862 67616.862 0 00-14.912-45.952c-7.808-23.968-33.536-37.088-57.472-29.28-23.968 7.776-37.088 33.504-29.28 57.44l14.944 45.984-47.424 15.424c-22.4 8.096-34.976 32.256-28.288 55.488 6.976 24.192 32.672 38.944 56.448 31.232.192-.064 18.848-6.112 47.424-15.424l31.2 96-47.424 15.424c-22.368 8.096-34.944 32.256-28.288 55.488 6.976 24.192 32.672 38.976 56.448 31.232.192-.064 18.848-6.112 47.456-15.424l15.424 47.424c8.096 22.368 32.256 34.944 55.488 28.288 24.192-6.976 38.976-32.672 31.232-56.448-.064-.192-6.112-18.816-15.392-47.424 31.36-10.176 64.704-21.024 96-31.2l15.424 47.424c8.096 22.368 32.256 34.944 55.488 28.288 24.192-6.976 38.976-32.672 31.232-56.448-.064-.192-6.112-18.816-15.424-47.424 27.936-9.088 45.952-14.944 45.952-14.944 23.936-7.776 37.056-33.504 29.28-57.472zm-286.144 45.056c-10.208-31.36-21.024-64.704-31.2-96 31.36-10.176 64.704-21.024 96-31.2l31.2 96-96 31.2z"/></symbol><symbol viewBox="0 0 512 512" id="011-logo" xmlns="http://www.w3.org/2000/svg"><path d="M211.563 26.133a10.666 10.666 0 00-8.896-4.8h-192C4.776 21.333 0 26.109 0 32v448a10.666 10.666 0 0010.666 10.666c4.255.015 8.111-2.5 9.813-6.4l192-448a10.662 10.662 0 00-.916-10.133zm54.314 161.856a10.667 10.667 0 00-9.877-6.656 10.668 10.668 0 00-9.835 6.528l-85.333 202.667c-2.286 5.43.263 11.684 5.692 13.97 1.311.552 2.72.836 4.142.836h77.931l29.419 78.421a10.667 10.667 0 009.984 6.912h85.333c5.891-.004 10.664-4.782 10.66-10.673a10.67 10.67 0 00-.783-4.004L265.877 187.989zM501.333 21.333h-192c-5.891-.021-10.683 4.738-10.704 10.629a10.674 10.674 0 00.89 4.304l192 448a10.666 10.666 0 009.813 6.4 10.913 10.913 0 002.133-.213A10.667 10.667 0 00511.998 480V32c.002-5.891-4.774-10.667-10.665-10.667z"/></symbol><symbol viewBox="0 0 305 305" id="012-spotify" xmlns="http://www.w3.org/2000/svg"><path d="M152.441 0C68.385 0 0 68.39 0 152.453 0 236.568 68.385 305 152.441 305 236.562 305 305 236.568 305 152.453 305 68.39 236.562 0 152.441 0zM75.08 208.47c17.674-5.38 35.795-8.108 53.857-8.108 30.676 0 60.96 7.774 87.592 22.49 1.584.863 3.024 3.717 3.67 7.27.646 3.552.389 7.205-.648 9.105-1.309 2.438-3.965 4.014-6.768 4.014a7.773 7.773 0 01-3.831-.972c-24.448-13.438-52.116-20.542-80.015-20.542-16.855 0-33.402 2.495-49.167 7.409a8.084 8.084 0 01-2.348.352c-3.452.001-6.448-2.198-7.453-5.461-1.357-4.461 1.45-14.36 5.111-15.557zm-6.65-56.167a230.72 230.72 0 0160.508-8.071c36.765 0 73.273 8.896 105.601 25.739 2.266 1.15 3.936 3.1 4.701 5.49.776 2.421.542 5.024-.669 7.347-2.885 5.646-6.257 9.44-8.393 9.44-1.514 0-2.975-.363-4.43-1.09-30.019-15.632-62.59-23.558-96.811-23.558-19.035 0-37.71 2.503-55.489 7.435a9.512 9.512 0 01-11.683-6.676c-1.429-5.365 1.836-14.743 6.665-16.056zm-1.703-36.697c-.903.223-1.826.335-2.744.335a11.195 11.195 0 01-10.892-8.487c-1.559-6.323 2.397-13.668 8.126-15.111 22.281-5.473 45.065-8.248 67.72-8.248 43.856 0 85.857 9.86 124.851 29.312a11.17 11.17 0 015.687 6.493c.96 2.854.748 5.926-.592 8.64-1.826 3.655-5.772 7.59-10.121 7.59a11.74 11.74 0 01-4.924-1.109c-35.819-17.921-74.477-27.008-114.9-27.008-20.774.001-41.704 2.555-62.211 7.593z"/></symbol><symbol viewBox="0 0 512.013 512.013" id="013-nike" xmlns="http://www.w3.org/2000/svg"><path d="M287.757 225.794l-31.808 8.352-88.256 23.104c-31.168 7.712-58.432 17.984-84.704 8.992-35.712-15.424-35.072-55.552-8.448-98.24C27.469 206.85-57.235 331.074 57.325 343.618c14.592 1.92 40.576-3.2 68.8-15.072l129.824-53.28 256.064-104.704-224.256 55.232z"/></symbol><symbol viewBox="0 0 349.078 349.078" id="014-quote" xmlns="http://www.w3.org/2000/svg"><path d="M150.299 26.634v58.25c0 7.9-6.404 14.301-14.304 14.301-28.186 0-43.518 28.909-45.643 85.966h45.643c7.9 0 14.304 6.407 14.304 14.304v122.992c0 7.896-6.404 14.298-14.304 14.298H14.301C6.398 336.745 0 330.338 0 322.447V199.455c0-27.352 2.754-52.452 8.183-74.611 5.568-22.721 14.115-42.587 25.396-59.048 11.608-16.917 26.128-30.192 43.16-39.44C93.886 17.052 113.826 12.333 136 12.333c7.895 0 14.299 6.401 14.299 14.301zm184.474 72.552c7.896 0 14.305-6.407 14.305-14.301v-58.25c0-7.9-6.408-14.301-14.305-14.301-22.165 0-42.108 4.72-59.249 14.023-17.035 9.248-31.563 22.523-43.173 39.44-11.277 16.461-19.824 36.328-25.393 59.054-5.426 22.166-8.18 47.266-8.18 74.605v122.992c0 7.896 6.406 14.298 14.304 14.298h121.69c7.896 0 14.299-6.407 14.299-14.298V199.455c0-7.896-6.402-14.304-14.299-14.304H289.78c2.093-57.056 17.201-85.965 44.993-85.965z"/></symbol><symbol viewBox="0 0 455.73 455.73" id="015-facebook" xmlns="http://www.w3.org/2000/svg"><path d="M0 0v455.73h242.704V279.691h-59.33v-71.864h59.33v-60.353c0-43.893 35.582-79.475 79.475-79.475h62.025v64.622h-44.382c-13.947 0-25.254 11.307-25.254 25.254v49.953h68.521l-9.47 71.864h-59.051V455.73H455.73V0H0z"/></symbol><symbol viewBox="0 0 242.667 242.667" id="016-vk" xmlns="http://www.w3.org/2000/svg"><path d="M0 0v242.667h242.667V0H0zm177.006 135.224l21.075 24.216c2.694 3.096.495 7.925-3.609 7.925h-23.783a14.878 14.878 0 01-10.13-3.982l-7.043-6.549c-7.948-6.954-11.326-9.339-14.505-9.339-3.179 0-3.974 2.384-3.974 8.544 0 6.159-1.192 11.326-19.472 11.326s-32.586-13.71-48.68-34.97c-16.094-21.26-23.247-44.11-23.247-44.11-.888-2.86 1.25-5.762 4.245-5.762h19.032a9.283 9.283 0 018.435 5.378c1.558 3.373 4.238 8.578 8.822 16.279 6.505 10.928 12.754 15.851 16.294 17.947 1.318.781 2.98-.184 2.98-1.716V94.199c0-3.43-1.239-6.744-3.49-9.332l-2.683-3.085c-.694-.798-.127-2.041.93-2.041h30.079a8.345 8.345 0 018.345 8.345v30.483c0 1.964 2.549 2.732 3.634 1.096l21.649-32.627a9.213 9.213 0 017.675-4.119h25.413c3.473 0 5.585 3.825 3.736 6.765l-22.487 35.741a8.242 8.242 0 00.759 9.799z"/></symbol><symbol viewBox="0 0 455.731 455.731" id="017-twitter" xmlns="http://www.w3.org/2000/svg"><path d="M0 0v455.731h455.731V0H0zm361.271 163.944c.104 2.676.161 5.362.161 8.067 0 108.339-87.831 196.18-196.18 196.18-38.568 0-74.545-11.132-104.875-30.368a.918.918 0 01-.02-.003l.02.003c59.293 8.843 101.06-28.888 101.06-28.888-52.832-4.109-63.271-48.077-63.271-48.077 18.667 3.16 30.368-1.272 30.368-1.272-59.465-13.912-54.407-68.329-54.407-68.329 13.77 8.228 29.733 8.864 29.733 8.864-52.509-46.188-19.607-91.105-19.607-91.105 55.052 66.668 135.975 71.204 141.289 71.423a68.67 68.67 0 01-1.784-15.592c0-37.998 30.814-68.803 68.841-68.803 19.825 0 37.685 8.37 50.25 21.78a223.578 223.578 0 0010.088-3.103c19.493-6.501 33.415-13.932 33.415-13.932-3.359 20.129-28.176 37.021-29.951 38.207-.066.047-.104.066-.104.066.038 0 .085-.009.123-.009 19.265-1.927 38.948-10.107 38.948-10.107-5.94 12.487-30.178 31.913-34.097 34.998z"/></symbol><symbol viewBox="0 0 483.013 483.013" id="018-hexagonal" xmlns="http://www.w3.org/2000/svg"><path d="M477.043 219.205L378.575 48.677a44.579 44.579 0 00-38.607-22.292H143.041a44.589 44.589 0 00-38.608 22.292L5.971 219.205a44.607 44.607 0 000 44.588l98.462 170.543a44.59 44.59 0 0038.608 22.293h196.926a44.577 44.577 0 0038.607-22.293l98.469-170.543a44.612 44.612 0 000-44.588z"/></symbol></svg>