<?xml version="1.0" encoding="iso-8859-1"?>
<!-- Generator: Adobe Illustrator 19.0.0, SVG Export Plug-In . SVG Version: 6.00 Build 0)  -->
<svg version="1.1" id="Capa_1" xmlns="http://www.w3.org/2000/svg" xmlns:xlink="http://www.w3.org/1999/xlink" x="0px" y="0px"
	 viewBox="0 0 512.001 512.001" style="enable-background:new 0 0 512.001 512.001;" xml:space="preserve">
<g>
	<g>
		<path d="M507.601,486.357l-67.049-67.049c14.984-110.188,1.285-253.633-79.701-334.618C304.945,28.784,223.07,6.681,144.82,1.353
			C75.446-3.369,20.732,5.762,18.438,6.152C12.321,7.181,7.24,12.063,6.152,18.437C5.76,20.733-3.371,75.449,1.353,144.819
			c5.33,78.271,27.439,160.133,83.338,216.032c80.477,80.477,223.66,94.791,334.617,79.699l67.05,67.05
			c5.865,5.866,15.377,5.866,21.243,0C513.467,501.734,513.467,492.223,507.601,486.357z M105.934,339.61
			c-54.138-54.138-70.429-136.557-74.561-196.167c-2.485-35.816-0.998-67.953,0.892-89.935l95.98,95.98H78.772
			c-8.296,0-15.021,6.726-15.021,15.021s6.726,15.021,15.021,15.021h79.514l60.085,60.085H102.381
			c-8.296,0-15.021,6.726-15.021,15.021s6.725,15.021,15.021,15.021h146.033l60.085,60.085H194.582
			c-8.296,0-15.021,6.726-15.021,15.021s6.726,15.021,15.021,15.021h143.96l53.467,53.467
			C329.97,418.516,186.809,420.486,105.934,339.61z M413.278,392.036l-53.494-53.494V194.582c0-8.296-6.726-15.021-15.021-15.021
			c-8.296,0-15.021,6.725-15.021,15.021v113.917l-60.085-60.085V102.381c0-8.296-6.726-15.021-15.021-15.021
			c-8.296,0-15.021,6.725-15.021,15.021v115.991l-60.085-60.085V78.768c0-8.296-6.725-15.021-15.021-15.021
			c-8.296,0-15.021,6.726-15.021,15.021v49.477L53.533,32.291c21.537-1.828,52.852-3.258,87.942-0.963
			c65.989,4.316,145.335,21.806,198.133,74.606C408.447,174.771,421.619,295.017,413.278,392.036z"/>
	</g>
</g>
<g>
</g>
<g>
</g>
<g>
</g>
<g>
</g>
<g>
</g>
<g>
</g>
<g>
</g>
<g>
</g>
<g>
</g>
<g>
</g>
<g>
</g>
<g>
</g>
<g>
</g>
<g>
</g>
<g>
</g>
</svg>
